<svg aria-hidden="true" style="width:0;height:0;position:absolute;overflow:hidden" xmlns="http://www.w3.org/2000/svg"><defs><symbol id="icon-film" viewBox="0 0 32 32"><path fill="none" stroke="#fff" style="stroke:var(--color1,#fff)" stroke-linejoin="round" stroke-linecap="round" stroke-width="2.667" d="M26.427 2.667H5.574a2.907 2.907 0 0 0-2.907 2.907v20.853a2.907 2.907 0 0 0 2.907 2.907h20.853a2.907 2.907 0 0 0 2.907-2.907V5.574a2.907 2.907 0 0 0-2.907-2.907zM9.333 2.667v26.667M22.667 2.667v26.667M2.667 16h26.667M2.667 9.333h6.667M2.667 22.667h6.667M22.667 22.667h6.667M22.667 9.333h6.667"/></symbol><symbol id="icon-clouz" viewBox="0 0 32 32"><path fill="none" d="M32 3.223 28.777 0 16 12.777 3.223 0 0 3.223 12.777 16 0 28.777 3.223 32 16 19.223 28.777 32 32 28.777 19.223 16 32 3.223z"/></symbol><symbol id="icon-close" viewBox="0 0 32 32"><path stroke-width="2.133" d="m8.533 8.533 14.933 14.933M8.533 23.467 23.466 8.534"/></symbol><symbol id="icon" viewBox="0 0 30 30" fill="none"><path d="m8 8 14 14M8 22 22 8" stroke="#000" stroke-width="2"/></symbol><symbol id="icon-search" viewBox="0 0 32 32"><path fill="none" stroke="#fff" style="stroke:var(--color1,#fff)" stroke-linejoin="round" stroke-linecap="round" stroke-width="2.667" d="M14.667 25.333c5.891 0 10.667-4.776 10.667-10.667S20.558 3.999 14.667 3.999 4 8.775 4 14.666s4.776 10.667 10.667 10.667zM28 28.001l-5.8-5.8"/></symbol><symbol id="icon-sun" viewBox="0 0 12 12"><path d="M3.012 6.188a2.812 2.812 0 1 0 5.625.001 2.812 2.812 0 0 0-5.625-.001zm2.812-4.782-.791 1.582h1.582l-.791-1.582zm3.38 1.39-1.678.559 1.118 1.119.56-1.678zm-5.081.56-1.678-.559.559 1.678 1.119-1.119zm-1.51 2.029-1.582.791 1.582.791V5.385zM9.012 6.99l1.582-.791-1.582-.791V6.99zm-3.188 3.979.791-1.582H5.033l.791 1.582zM7.526 9.02l1.678.559-.559-1.678L7.526 9.02zm-5.081.559 1.678-.559-1.119-1.119-.559 1.678z"/></symbol><symbol id="icon-moon" viewBox="0 0 12 12"><path d="M4.086 2.84c0 2.831 1.942 5.126 4.338 5.126.596 0 1.163-.143 1.68-.399a4.434 4.434 0 1 1-5.946-5.624c-.043.292-.071.59-.071.896z"/></symbol></defs></svg>